<?xml version="1.0" encoding="UTF-8"?>
<!DOCTYPE svg PUBLIC "-//W3C//DTD SVG 1.1//EN" "http://www.w3.org/Graphics/SVG/1.1/DTD/svg11.dtd">
<!-- Creator: CorelDRAW 2021 (64-Bit) -->
<svg xmlns="http://www.w3.org/2000/svg" xml:space="preserve" width="1.31672in" height="1.0976in" version="1.1" style="shape-rendering:geometricPrecision; text-rendering:geometricPrecision; image-rendering:optimizeQuality; fill-rule:evenodd; clip-rule:evenodd"
viewBox="0 0 109.6 91.36"
 xmlns:xlink="http://www.w3.org/1999/xlink"
 xmlns:xodm="http://www.corel.com/coreldraw/odm/2003">
 <defs>
  <style type="text/css">
   <![CDATA[
    .fil3 {fill:none;fill-rule:nonzero}
    .fil4 {fill:#606062}
    .fil2 {fill:#606062;fill-rule:nonzero}
    .fil1 {fill:#0098DA;fill-rule:nonzero}
    .fil0 {fill:#00A859;fill-opacity:0.701961}
   ]]>
  </style>
 </defs>
 <g id="Layer_x0020_1">
  <metadata id="CorelCorpID_0Corel-Layer"/>
  <g id="_1887743014928">
   <path class="fil0" d="M45.65 0c16.62,0 31.16,8.88 39.14,22.16 -7.43,-8.45 -18.32,-13.78 -30.45,-13.78 -22.4,0 -40.56,18.17 -40.56,40.59 0,22.42 18.16,40.59 40.56,40.59 1.71,0 3.39,-0.11 5.05,-0.31 -4.34,1.37 -8.95,2.11 -13.74,2.11 -25.21,0 -45.65,-20.45 -45.65,-45.68 0,-25.23 20.44,-45.68 45.65,-45.68z"/>
   <path class="fil0" d="M59.76 13.41c13.83,3.83 23.88,14.57 27.47,27.46 -4.24,-8.74 -12.07,-15.68 -22.17,-18.48 -18.64,-5.16 -37.93,5.78 -43.09,24.43 -5.16,18.65 5.77,37.96 24.41,43.12 1.42,0.39 2.85,0.69 4.27,0.9 -3.92,0.14 -7.93,-0.31 -11.91,-1.41 -20.98,-5.81 -33.28,-27.54 -27.47,-48.53 5.8,-20.99 27.52,-33.3 48.5,-27.49z"/>
   <path class="fil0" d="M68.15 29.14c10.53,5.82 16.64,16.54 17.05,27.75 -1.76,-7.96 -6.79,-15.15 -14.48,-19.4 -14.2,-7.85 -32.06,-2.69 -39.91,11.51 -7.84,14.21 -2.69,32.08 11.51,39.93 1.08,0.6 2.19,1.12 3.31,1.57 -3.23,-0.65 -6.41,-1.8 -9.44,-3.48 -15.98,-8.83 -21.77,-28.95 -12.95,-44.94 8.83,-15.99 28.93,-21.79 44.91,-12.96z"/>
   <path class="fil1" d="M44.41 74.12c-0.59,0.1 -1.12,0.18 -1.6,0.23 -0.48,0.05 -0.95,0.08 -1.41,0.08 -0.46,0 -0.99,-0.03 -1.58,-0.1 -0.6,-0.06 -1.27,-0.16 -2,-0.29l8.55 -27.28c0.66,-0.08 1.28,-0.14 1.85,-0.19 0.57,-0.05 1.15,-0.08 1.74,-0.08 0.48,0 1.01,0.03 1.58,0.08 0.57,0.05 1.23,0.11 1.97,0.19l8.44 27.32c-1.45,0.23 -2.72,0.34 -3.82,0.34 -0.51,0 -1.02,-0.03 -1.53,-0.08 -0.51,-0.05 -1.06,-0.13 -1.64,-0.23l-1.45 -5.31c-0.71,0.2 -1.39,0.36 -2.04,0.46 -0.65,0.1 -1.29,0.15 -1.93,0.15 -0.59,0 -1.18,-0.04 -1.79,-0.13 -0.61,-0.09 -1.25,-0.22 -1.91,-0.4l-1.41 5.23zm5.34 -20.17l-2.56 9.82c0.43,0.13 0.84,0.23 1.22,0.31 0.38,0.08 0.78,0.11 1.18,0.11 0.43,0 0.86,-0.03 1.28,-0.1 0.42,-0.06 0.86,-0.16 1.32,-0.29l-2.44 -9.86zm14.66 -7.14c1.25,-0.13 2.4,-0.25 3.45,-0.36 1.06,-0.11 2.17,-0.17 3.34,-0.17 1.4,0 2.8,0.13 4.2,0.4 1.4,0.27 2.65,0.73 3.74,1.39 1.09,0.66 1.99,1.57 2.67,2.71 0.69,1.15 1.03,2.6 1.03,4.36 0,0.94 -0.11,1.79 -0.32,2.54 -0.22,0.75 -0.5,1.42 -0.84,2.01 -0.34,0.59 -0.73,1.1 -1.15,1.53 -0.42,0.43 -0.83,0.8 -1.24,1.11l5.96 11.77c-0.61,0.1 -1.28,0.18 -2,0.23 -0.73,0.05 -1.38,0.08 -1.97,0.08 -0.51,0 -1.1,-0.03 -1.78,-0.08 -0.67,-0.05 -1.27,-0.13 -1.78,-0.23l-5.42 -12.49 0.34 -0.19c0.31,-0.15 0.64,-0.41 1.01,-0.76 0.37,-0.36 0.71,-0.78 1.03,-1.28 0.32,-0.5 0.59,-1.05 0.8,-1.66 0.22,-0.61 0.32,-1.25 0.32,-1.91 0,-1.27 -0.36,-2.2 -1.07,-2.79 -0.71,-0.59 -1.59,-0.88 -2.63,-0.88 -0.25,0 -0.47,0.01 -0.65,0.04 -0.18,0.03 -0.29,0.05 -0.34,0.08l0 21.85c-1.35,0.23 -2.46,0.34 -3.32,0.34 -0.94,0 -2.07,-0.11 -3.4,-0.34l0 -27.28zm32.22 18.49l5.23 -18.49c0.59,-0.1 1.18,-0.18 1.78,-0.23 0.6,-0.05 1.23,-0.08 1.89,-0.08 0.43,0 0.97,0.03 1.6,0.1 0.64,0.06 1.2,0.13 1.68,0.21l-8.78 27.32c-0.66,0.1 -1.28,0.18 -1.85,0.23 -0.57,0.05 -1.13,0.08 -1.66,0.08 -0.51,0 -1.03,-0.03 -1.57,-0.08 -0.53,-0.05 -1.17,-0.13 -1.91,-0.23l-8.74 -27.32c0.43,-0.08 1.01,-0.15 1.72,-0.21 0.71,-0.06 1.4,-0.1 2.06,-0.1 0.53,0 1.12,0.03 1.76,0.1 0.64,0.06 1.2,0.13 1.68,0.21l5.12 18.49z"/>
   <g>
    <path class="fil2" d="M38.75 82.42l0 -4.3 2.95 0 0 0.73 -2.08 0 0 1.02 1.8 0 0 0.73 -1.8 0 0 1.83 -0.87 0zm5.58 0l0 -4.3 0.87 0 0 4.3 -0.87 0zm3.67 0l0 -4.27 0.87 0 0 3.54 2.15 0 0 0.73 -3.03 0zm6.11 0l0 -3.57 -1.27 0 0 -0.73 3.41 0 0 0.73 -1.27 0 0 3.57 -0.87 0zm4.64 0l0 -4.3 1.83 0c0.46,0 0.79,0.04 1,0.12 0.21,0.08 0.38,0.21 0.5,0.41 0.13,0.2 0.19,0.42 0.19,0.68 0,0.32 -0.09,0.59 -0.28,0.8 -0.19,0.21 -0.47,0.34 -0.85,0.4 0.19,0.11 0.34,0.23 0.46,0.36 0.12,0.13 0.29,0.36 0.49,0.7l0.52 0.84 -1.04 0 -0.62 -0.94c-0.22,-0.33 -0.38,-0.54 -0.46,-0.63 -0.08,-0.09 -0.17,-0.15 -0.26,-0.18 -0.09,-0.03 -0.24,-0.05 -0.44,-0.05l-0.18 0 0 1.8 -0.87 0zm0.87 -2.48l0.64 0c0.42,0 0.68,-0.02 0.78,-0.05 0.1,-0.03 0.18,-0.1 0.24,-0.18 0.06,-0.09 0.09,-0.19 0.09,-0.32 0,-0.15 -0.04,-0.26 -0.12,-0.35 -0.08,-0.09 -0.19,-0.15 -0.33,-0.17 -0.07,-0.01 -0.28,-0.02 -0.63,-0.02l-0.68 0 0 1.09zm12.65 2.48l0 -3.57 -1.27 0 0 -0.73 3.41 0 0 0.73 -1.27 0 0 3.57 -0.87 0zm4.61 0l0 -4.3 0.87 0 0 4.3 -0.87 0zm3.46 -2.12c0,-0.44 0.07,-0.81 0.2,-1.11 0.1,-0.22 0.23,-0.42 0.4,-0.59 0.17,-0.17 0.35,-0.3 0.56,-0.39 0.27,-0.11 0.58,-0.17 0.93,-0.17 0.63,0 1.14,0.2 1.52,0.59 0.38,0.39 0.57,0.94 0.57,1.64 0,0.7 -0.19,1.24 -0.57,1.63 -0.38,0.39 -0.88,0.59 -1.51,0.59 -0.64,0 -1.15,-0.2 -1.53,-0.59 -0.38,-0.39 -0.57,-0.93 -0.57,-1.62zm0.89 -0.03c0,0.49 0.11,0.86 0.34,1.11 0.23,0.25 0.51,0.38 0.86,0.38 0.35,0 0.63,-0.13 0.85,-0.37 0.22,-0.25 0.33,-0.62 0.33,-1.12 0,-0.49 -0.11,-0.86 -0.33,-1.1 -0.22,-0.24 -0.5,-0.36 -0.86,-0.36 -0.36,0 -0.65,0.12 -0.87,0.37 -0.22,0.25 -0.33,0.62 -0.33,1.11zm5.9 2.15l0 -4.3 0.84 0 1.77 2.88 0 -2.88 0.8 0 0 4.3 -0.87 0 -1.74 -2.83 0 2.83 -0.8 0zm7.97 0l0 -4.27 0.87 0 0 3.54 2.15 0 0 0.73 -3.03 0zm5.61 0l0 -4.27 0.87 0 0 3.54 2.15 0 0 0.73 -3.03 0zm5.59 0l0 -4.3 1.39 0c0.53,0 0.87,0.02 1.03,0.06 0.25,0.06 0.45,0.21 0.62,0.42 0.17,0.22 0.25,0.5 0.25,0.84 0,0.26 -0.05,0.49 -0.14,0.67 -0.1,0.18 -0.22,0.32 -0.36,0.42 -0.15,0.1 -0.3,0.17 -0.45,0.2 -0.21,0.04 -0.51,0.06 -0.9,0.06l-0.56 0 0 1.62 -0.87 0zm0.87 -3.57l0 1.23 0.47 0c0.34,0 0.57,-0.02 0.68,-0.07 0.12,-0.05 0.21,-0.12 0.27,-0.21 0.07,-0.1 0.1,-0.21 0.1,-0.34 0,-0.16 -0.05,-0.29 -0.14,-0.39 -0.09,-0.1 -0.21,-0.17 -0.35,-0.19 -0.1,-0.02 -0.31,-0.03 -0.62,-0.03l-0.42 0z"/>
    <path class="fil3" d="M68.9 82.42l-0.94 0 -0.37 -0.98 -1.72 0 -0.36 0.98 -0.92 0 1.67 -4.3 0.92 0 1.72 4.3zm-1.59 -1.71l-0.6 -1.59 -0.58 1.59 1.18 0z"/>
   </g>
   <polygon class="fil4" points="66.75,77.75 68.56,81.92 68.36,82.12 68.3,82.12 67.93,81.75 67.57,82.12 67.51,82.12 67.15,81.75 66.78,82.12 66.72,82.12 66.36,81.75 66,82.12 65.93,82.12 65.57,81.75 65.21,82.12 65.15,82.12 64.95,81.92 "/>
   <polygon class="fil4" points="65.57,82 65.82,82.25 65.82,82.83 65.57,82.83 65.32,82.83 65.32,82.25 "/>
   <polygon class="fil4" points="66.36,82 66.61,82.25 66.61,82.83 66.36,82.83 66.11,82.83 66.11,82.25 "/>
   <polygon class="fil4" points="67.15,82 67.4,82.25 67.4,82.83 67.15,82.83 66.89,82.83 66.89,82.25 "/>
   <polygon class="fil4" points="67.93,82 68.19,82.25 68.19,82.83 67.93,82.83 67.68,82.83 67.68,82.25 "/>
   <polygon class="fil4" points="68.72,82 68.97,82.25 68.97,82.83 68.72,82.83 68.47,82.83 68.47,82.25 "/>
   <polygon class="fil4" points="64.79,82 65.04,82.25 65.04,82.83 64.79,82.83 64.53,82.83 64.53,82.25 "/>
   <g>
    <polygon class="fil4" points="65.15,82.14 65.21,82.14 65.21,82.96 65.15,82.96 "/>
    <polygon class="fil4" points="68.29,82.14 68.36,82.14 68.36,82.96 68.29,82.96 "/>
   </g>
   <polygon class="fil4" points="64.55,82.73 64.81,82.89 64.81,83.25 64.55,83.25 "/>
   <polygon class="fil4" points="68.97,82.73 68.71,82.89 68.71,83.25 68.97,83.25 "/>
   <polygon class="fil4" points="64.65,82.97 64.65,82.91 68.81,82.91 68.81,82.97 "/>
   <path class="fil4" d="M66.47 77.92l0.56 0c0.05,0 0.09,0.04 0.09,0.09l0 0.1c0,0.05 -0.04,0.09 -0.09,0.09l-0.56 0c-0.05,0 -0.09,-0.04 -0.09,-0.09l0 -0.1c0,-0.05 0.04,-0.09 0.09,-0.09z"/>
   <polygon class="fil4" points="66.57,77.96 66.97,77.96 66.97,77.14 66.57,77.14 "/>
   <polygon class="fil4" points="66.61,77.96 66.92,77.96 66.92,76.59 66.61,76.59 "/>
   <polygon class="fil4" points="66.64,77.96 66.89,77.96 66.89,75.93 66.64,75.93 "/>
   <polygon class="fil4" points="66.66,77.96 66.88,77.96 66.88,75.74 66.66,75.74 "/>
   <path class="fil4" d="M66.94 75.4c0.21,0 0.38,0.13 0.38,0.28 0,0.15 -0.17,0.28 -0.38,0.28 -0.21,0 -0.38,-0.13 -0.38,-0.28 0,-0.16 0.17,-0.28 0.38,-0.28z"/>
   <path class="fil4" d="M67.49 75.51c0.17,0 0.31,0.1 0.31,0.23 0,0.13 -0.14,0.23 -0.31,0.23 -0.17,0 -0.31,-0.1 -0.31,-0.23 0,-0.13 0.14,-0.23 0.31,-0.23z"/>
   <path class="fil4" d="M67.05 75.74c0.17,0 0.31,0.1 0.31,0.23 0,0.13 -0.14,0.23 -0.31,0.23 -0.17,0 -0.31,-0.1 -0.31,-0.23 0,-0.13 0.14,-0.23 0.31,-0.23z"/>
   <path class="fil4" d="M67.55 75.73c0.15,0 0.27,0.09 0.27,0.2 0,0.11 -0.12,0.2 -0.27,0.2 -0.15,0 -0.27,-0.09 -0.27,-0.2 0,-0.11 0.12,-0.2 0.27,-0.2z"/>
   <path class="fil4" d="M67.91 75.61c0.13,0 0.24,0.08 0.24,0.18 0,0.1 -0.11,0.18 -0.24,0.18 -0.13,0 -0.24,-0.08 -0.24,-0.18 0,-0.1 0.11,-0.18 0.24,-0.18z"/>
   <path class="fil4" d="M67.98 75.78c0.11,0 0.2,0.07 0.2,0.15 0,0.08 -0.09,0.15 -0.2,0.15 -0.11,0 -0.2,-0.07 -0.2,-0.15 0,-0.08 0.09,-0.15 0.2,-0.15z"/>
   <path class="fil4" d="M68.25 75.68c0.11,0 0.2,0.07 0.2,0.15 0,0.08 -0.09,0.15 -0.2,0.15 -0.11,0 -0.2,-0.07 -0.2,-0.15 0,-0.08 0.09,-0.15 0.2,-0.15z"/>
  </g>
 </g>
</svg>
